<svg height="512pt" viewBox="-31 0 512 512" width="512pt" xmlns="http://www.w3.org/2000/svg"><path d="m450 15v482c0 8.398438-6.597656 15-15 15h-420c-8.402344 0-15-6.601562-15-15v-482c0-8.402344 6.597656-15 15-15h420c8.402344 0 15 6.597656 15 15zm0 0" fill="#575f64"/><path d="m450 15v482c0 8.398438-6.597656 15-15 15h-210v-512h210c8.402344 0 15 6.597656 15 15zm0 0" fill="#32393f"/><path d="m120 151h210v210h-210zm0 0" fill="#ff641a"/><path d="m225 151h105v210h-105zm0 0" fill="#f03800"/><path d="m30 151h60v30h-60zm0 0" fill="#f2f2fc"/><path d="m30 211h60v30h-60zm0 0" fill="#f2f2fc"/><path d="m30 271h60v30h-60zm0 0" fill="#f2f2fc"/><path d="m30 331h60v30h-60zm0 0" fill="#f2f2fc"/><g fill="#d8d8fc"><path d="m360 331h60v30h-60zm0 0"/><path d="m360 271h60v30h-60zm0 0"/><path d="m360 211h60v30h-60zm0 0"/><path d="m360 151h60v30h-60zm0 0"/><path d="m360 90h60v31h-60zm0 0"/></g><path d="m120 30h210v91h-210zm0 0" fill="#ff641a"/><path d="m30 90h60v31h-60zm0 0" fill="#f2f2fc"/><path d="m30 391h60v31h-60zm0 0" fill="#f2f2fc"/><path d="m120 391h210v91h-210zm0 0" fill="#ff641a"/><path d="m360 391h60v31h-60zm0 0" fill="#d8d8fc"/><path d="m360 30h60v30h-60zm0 0" fill="#d8d8fc"/><path d="m30 30h60v30h-60zm0 0" fill="#f2f2fc"/><path d="m30 452h60v30h-60zm0 0" fill="#f2f2fc"/><path d="m360 452h60v30h-60zm0 0" fill="#d8d8fc"/><path d="m225 30h105v91h-105zm0 0" fill="#f03800"/><path d="m225 391h105v91h-105zm0 0" fill="#f03800"/><path d="m293.402344 243.398438-68.402344-45.597657-21.597656-14.402343c-4.800782-3-10.503906-3.300782-15.601563-.597657-4.800781 2.699219-7.800781 7.800781-7.800781 13.199219v120c0 5.398438 3 10.5 7.800781 13.199219 2.398438 1.199219 4.796875 1.800781 7.199219 1.800781 3 0 5.699219-.902344 8.402344-2.402344l90-60c4.195312-2.996094 6.597656-7.5 6.597656-12.597656 0-5.101562-2.402344-9.601562-6.597656-12.601562zm0 0" fill="#f2f2fc"/><path d="m300 256c0 5.097656-2.402344 9.601562-6.597656 12.597656l-68.402344 45.601563v-116.398438l68.402344 45.597657c4.195312 3 6.597656 7.5 6.597656 12.601562zm0 0" fill="#d8d8fc"/></svg>